<svg width="28" height="25" viewBox="0 0 28 25" fill="none" xmlns="http://www.w3.org/2000/svg">
<path d="M4.06665 7.13333V4.06667C4.06665 3.04444 4.83332 1 7.89998 1C10.9667 1 19.9111 1 24 1C25.0222 1 27.0666 1.76667 27.0666 4.83333C27.0666 7.9 27.0666 16.8444 27.0666 20.9333C27.0666 21.9556 26.4533 24 24 24C21.5466 24 11.7333 24 7.13332 24C6.11109 24 4.06665 23.3867 4.06665 20.9333C4.06665 18.48 4.06665 17.6111 4.06665 17.8667" stroke="#334155" stroke-width="1.5" stroke-linecap="round"/>
<path d="M1 12.5L21.7 12.5" stroke="#334155" stroke-width="1.5" stroke-linecap="round"/>
<path d="M15.5667 18.6334L21.7 12.5" stroke="#334155" stroke-width="1.5" stroke-linecap="round"/>
<path d="M15.5667 6.36664L21.7 12.5" stroke="#334155" stroke-width="1.5" stroke-linecap="round"/>
</svg>
