<svg width="18" height="23" viewBox="0 0 18 23" fill="none" xmlns="http://www.w3.org/2000/svg">
<path d="M4 6L14 6" stroke="#727272" stroke-linecap="round"/>
<path d="M4 9L14 9" stroke="#727272" stroke-linecap="round"/>
<path d="M4 12L14 12" stroke="#727272" stroke-linecap="round"/>
<path d="M4 15L14 15" stroke="#727272" stroke-linecap="round"/>
<path d="M9 1H2.5C1.5 1 1 1.5 1 2.5C1 3.7 1 15.5 1 21C1 22 1.33772 22.5 2.5 22.5C4.1 22.5 7.66667 22.5 9 22.5" stroke="#727272"/>
<path d="M9 1H15.5C16.5 1 17 1.5 17 2.5C17 3.7 17 15.5 17 21C17 22 16.6623 22.5 15.5 22.5C13.9 22.5 10.3333 22.5 9 22.5" stroke="#727272"/>
</svg>
