<svg width="99" height="78" viewBox="0 0 99 78" fill="none" xmlns="http://www.w3.org/2000/svg">
<g filter="url(#filter0_d_4_2)">
<path d="M4 3.5V66C4 70 7.33333 70 9 70H90.5C94.1 70 95 67.3333 95 66V14C95 9.2 92 7.33333 90.5 7H37C34.8323 7 33.2273 0 31 0H8C5.2 0 4.16667 2.33333 4 3.5Z" fill="#5D697A"/>
<g filter="url(#filter1_d_4_2)">
<path d="M9.5 12.9999C5.1 12.9999 4 16.3332 4 17.4999V65.4999C4 69.4999 6.5 69.9999 9 69.9999H90C93.8504 69.9999 95 67.9999 95 65.4999V17.4999C95 13.4999 92.3345 12.9999 90 12.9999H9.5Z" fill="url(#paint0_linear_4_2)" shape-rendering="crispEdges"/>
</g>
</g>
<defs>
<filter id="filter0_d_4_2" x="0" y="0" width="99" height="78" filterUnits="userSpaceOnUse" color-interpolation-filters="sRGB">
<feFlood flood-opacity="0" result="BackgroundImageFix"/>
<feColorMatrix in="SourceAlpha" type="matrix" values="0 0 0 0 0 0 0 0 0 0 0 0 0 0 0 0 0 0 127 0" result="hardAlpha"/>
<feOffset dy="4"/>
<feGaussianBlur stdDeviation="2"/>
<feComposite in2="hardAlpha" operator="out"/>
<feColorMatrix type="matrix" values="0 0 0 0 0 0 0 0 0 0 0 0 0 0 0 0 0 0 0.25 0"/>
<feBlend mode="normal" in2="BackgroundImageFix" result="effect1_dropShadow_4_2"/>
<feBlend mode="normal" in="SourceGraphic" in2="effect1_dropShadow_4_2" result="shape"/>
</filter>
<filter id="filter1_d_4_2" x="0" y="12.9999" width="99" height="65" filterUnits="userSpaceOnUse" color-interpolation-filters="sRGB">
<feFlood flood-opacity="0" result="BackgroundImageFix"/>
<feColorMatrix in="SourceAlpha" type="matrix" values="0 0 0 0 0 0 0 0 0 0 0 0 0 0 0 0 0 0 127 0" result="hardAlpha"/>
<feOffset dy="4"/>
<feGaussianBlur stdDeviation="2"/>
<feComposite in2="hardAlpha" operator="out"/>
<feColorMatrix type="matrix" values="0 0 0 0 0 0 0 0 0 0 0 0 0 0 0 0 0 0 0.25 0"/>
<feBlend mode="normal" in2="BackgroundImageFix" result="effect1_dropShadow_4_2"/>
<feBlend mode="normal" in="SourceGraphic" in2="effect1_dropShadow_4_2" result="shape"/>
</filter>
<linearGradient id="paint0_linear_4_2" x1="49.5" y1="12.9999" x2="49.5" y2="69.9999" gradientUnits="userSpaceOnUse">
<stop stop-color="#334155"/>
<stop offset="1" stop-color="#334155" stop-opacity="0.5"/>
</linearGradient>
</defs>
</svg>
