<svg width="133" height="76" viewBox="0 0 133 76" fill="none" xmlns="http://www.w3.org/2000/svg">
<circle cx="67" cy="6" r="5.5" stroke="#838383"/>
<circle cx="102" cy="28" r="5.5" stroke="#838383"/>
<circle cx="84" cy="49" r="5.5" stroke="#838383"/>
<circle cx="120" cy="49" r="5.5" stroke="#838383"/>
<line x1="72.2695" y1="8.57886" x2="97.2695" y2="24.5789" stroke="#838383"/>
<path d="M98.1278 32.3722L87.8821 44.5144" stroke="#838383"/>
<path d="M105.864 32.3396L116.5 44.4999" stroke="#838383"/>
<circle cx="6" cy="6" r="5.5" transform="matrix(-1 0 0 1 38 22)" stroke="#838383"/>
<circle cx="6" cy="6" r="5.5" transform="matrix(-1 0 0 1 56 43)" stroke="#838383"/>
<circle cx="6" cy="6" r="5.5" transform="matrix(-1 0 0 1 20 43)" stroke="#838383"/>
<line y1="-0.5" x2="29.6816" y2="-0.5" transform="matrix(-0.842271 0.539054 0.539054 0.842271 62 9)" stroke="#838383"/>
<path d="M35.8722 32.3722L46.1179 44.5144" stroke="#838383"/>
<path d="M28.1357 32.3396L17.4999 44.4999" stroke="#838383"/>
<path d="M7.45563 75V66.563H4.85563V65.497H11.2256V66.563H8.62563V75H7.45563ZM13.1315 75V65.51H14.3015V67.85V69.215H14.5485L14.3015 69.488C14.3015 68.9247 14.4705 68.4913 14.8085 68.188C15.1465 67.876 15.6145 67.72 16.2125 67.72C16.9319 67.72 17.5039 67.941 17.9285 68.383C18.3532 68.825 18.5655 69.4273 18.5655 70.19V75H17.3955V70.32C17.3955 69.8087 17.2569 69.4143 16.9795 69.137C16.7109 68.851 16.3425 68.708 15.8745 68.708C15.3892 68.708 15.0035 68.8597 14.7175 69.163C14.4402 69.4663 14.3015 69.8953 14.3015 70.45V75H13.1315ZM23.6305 75.13C23.0671 75.13 22.5731 75.0173 22.1485 74.792C21.7325 74.5667 21.4075 74.2503 21.1735 73.843C20.9481 73.427 20.8355 72.946 20.8355 72.4V70.45C20.8355 69.8953 20.9481 69.4143 21.1735 69.007C21.4075 68.5997 21.7325 68.2833 22.1485 68.058C22.5731 67.8327 23.0671 67.72 23.6305 67.72C24.1938 67.72 24.6835 67.8327 25.0995 68.058C25.5241 68.2833 25.8491 68.5997 26.0745 69.007C26.3085 69.4143 26.4255 69.8953 26.4255 70.45V71.711H21.9795V72.4C21.9795 72.9633 22.1225 73.3967 22.4085 73.7C22.6945 73.9947 23.1018 74.142 23.6305 74.142C24.0811 74.142 24.4451 74.064 24.7225 73.908C24.9998 73.7433 25.1688 73.5007 25.2295 73.18H26.3995C26.3215 73.778 26.0268 74.2547 25.5155 74.61C25.0128 74.9567 24.3845 75.13 23.6305 75.13ZM25.2815 70.931V70.45C25.2815 69.8867 25.1385 69.4533 24.8525 69.15C24.5751 68.8467 24.1678 68.695 23.6305 68.695C23.1018 68.695 22.6945 68.8467 22.4085 69.15C22.1225 69.4533 21.9795 69.8867 21.9795 70.45V70.827H25.3725L25.2815 70.931ZM36.3083 75V65.51H37.8423L38.8303 68.578C38.9256 68.8553 39.0123 69.1327 39.0903 69.41C39.1683 69.6787 39.2246 69.8867 39.2593 70.034C39.3026 69.8867 39.359 69.6787 39.4283 69.41C39.4976 69.1327 39.5756 68.851 39.6623 68.565L40.5983 65.51H42.1323V75H40.9883V71.555C40.9883 71.1737 41.0013 70.7403 41.0273 70.255C41.0533 69.7697 41.088 69.2757 41.1313 68.773C41.1746 68.2617 41.218 67.7763 41.2613 67.317C41.3133 66.849 41.3566 66.4417 41.3913 66.095L39.8573 70.84H38.6223L37.0753 66.095C37.1186 66.433 37.162 66.8273 37.2053 67.278C37.2486 67.72 37.2876 68.1923 37.3223 68.695C37.357 69.189 37.3873 69.683 37.4133 70.177C37.4393 70.671 37.4523 71.1303 37.4523 71.555V75H36.3083ZM47.0152 75.13C46.4519 75.13 45.9579 75.0173 45.5332 74.792C45.1172 74.5667 44.7922 74.2503 44.5582 73.843C44.3329 73.427 44.2202 72.946 44.2202 72.4V70.45C44.2202 69.8953 44.3329 69.4143 44.5582 69.007C44.7922 68.5997 45.1172 68.2833 45.5332 68.058C45.9579 67.8327 46.4519 67.72 47.0152 67.72C47.5786 67.72 48.0682 67.8327 48.4842 68.058C48.9089 68.2833 49.2339 68.5997 49.4592 69.007C49.6932 69.4143 49.8102 69.8953 49.8102 70.45V71.711H45.3642V72.4C45.3642 72.9633 45.5072 73.3967 45.7932 73.7C46.0792 73.9947 46.4866 74.142 47.0152 74.142C47.4659 74.142 47.8299 74.064 48.1072 73.908C48.3846 73.7433 48.5536 73.5007 48.6142 73.18H49.7842C49.7062 73.778 49.4116 74.2547 48.9002 74.61C48.3976 74.9567 47.7692 75.13 47.0152 75.13ZM48.6662 70.931V70.45C48.6662 69.8867 48.5232 69.4533 48.2372 69.15C47.9599 68.8467 47.5526 68.695 47.0152 68.695C46.4866 68.695 46.0792 68.8467 45.7932 69.15C45.5072 69.4533 45.3642 69.8867 45.3642 70.45V70.827H48.7572L48.6662 70.931ZM52.3532 75V67.85H53.4972V69.215H53.7702L53.3932 70.06C53.3932 69.2887 53.5578 68.708 53.8872 68.318C54.2252 67.9193 54.7235 67.72 55.3822 67.72C56.1362 67.72 56.7342 67.9583 57.1762 68.435C57.6268 68.903 57.8522 69.54 57.8522 70.346V70.775H56.6822V70.45C56.6822 69.8867 56.5435 69.4577 56.2662 69.163C55.9975 68.8597 55.6118 68.708 55.1092 68.708C54.6152 68.708 54.2252 68.8597 53.9392 69.163C53.6618 69.4663 53.5232 69.8953 53.5232 70.45V75H52.3532ZM59.9401 75V65.51H61.1101V70.801H62.4881L64.5681 67.85H65.9071L63.5021 71.256L65.9461 75H64.5811L62.5011 71.815H61.1101V75H59.9401ZM71.375 75C70.959 75 70.595 74.9177 70.283 74.753C69.971 74.5883 69.7283 74.3543 69.555 74.051C69.3817 73.7477 69.295 73.3923 69.295 72.985V66.576H66.89V65.51H70.465V72.985C70.465 73.2797 70.5473 73.5137 70.712 73.687C70.8767 73.8517 71.0977 73.934 71.375 73.934H73.65V75H71.375ZM78.1949 75.13C77.6316 75.13 77.1376 75.0173 76.7129 74.792C76.2969 74.5667 75.9719 74.2503 75.7379 73.843C75.5126 73.427 75.3999 72.946 75.3999 72.4V70.45C75.3999 69.8953 75.5126 69.4143 75.7379 69.007C75.9719 68.5997 76.2969 68.2833 76.7129 68.058C77.1376 67.8327 77.6316 67.72 78.1949 67.72C78.7583 67.72 79.2479 67.8327 79.6639 68.058C80.0886 68.2833 80.4136 68.5997 80.6389 69.007C80.8729 69.4143 80.9899 69.8953 80.9899 70.45V71.711H76.5439V72.4C76.5439 72.9633 76.6869 73.3967 76.9729 73.7C77.2589 73.9947 77.6663 74.142 78.1949 74.142C78.6456 74.142 79.0096 74.064 79.2869 73.908C79.5643 73.7433 79.7333 73.5007 79.7939 73.18H80.9639C80.8859 73.778 80.5913 74.2547 80.0799 74.61C79.5773 74.9567 78.9489 75.13 78.1949 75.13ZM79.8459 70.931V70.45C79.8459 69.8867 79.7029 69.4533 79.4169 69.15C79.1396 68.8467 78.7323 68.695 78.1949 68.695C77.6663 68.695 77.2589 68.8467 76.9729 69.15C76.6869 69.4533 76.5439 69.8867 76.5439 70.45V70.827H79.9369L79.8459 70.931ZM93.1998 75V66.563H90.5998V65.497H96.9698V66.563H94.3698V75H93.1998ZM99.1227 75V67.85H100.267V69.215H100.54L100.163 70.06C100.163 69.2887 100.327 68.708 100.657 68.318C100.995 67.9193 101.493 67.72 102.152 67.72C102.906 67.72 103.504 67.9583 103.946 68.435C104.396 68.903 104.622 69.54 104.622 70.346V70.775H103.452V70.45C103.452 69.8867 103.313 69.4577 103.036 69.163C102.767 68.8597 102.381 68.708 101.879 68.708C101.385 68.708 100.995 68.8597 100.709 69.163C100.431 69.4663 100.293 69.8953 100.293 70.45V75H99.1227ZM109.375 75.13C108.811 75.13 108.317 75.0173 107.893 74.792C107.477 74.5667 107.152 74.2503 106.918 73.843C106.692 73.427 106.58 72.946 106.58 72.4V70.45C106.58 69.8953 106.692 69.4143 106.918 69.007C107.152 68.5997 107.477 68.2833 107.893 68.058C108.317 67.8327 108.811 67.72 109.375 67.72C109.938 67.72 110.428 67.8327 110.844 68.058C111.268 68.2833 111.593 68.5997 111.819 69.007C112.053 69.4143 112.17 69.8953 112.17 70.45V71.711H107.724V72.4C107.724 72.9633 107.867 73.3967 108.153 73.7C108.439 73.9947 108.846 74.142 109.375 74.142C109.825 74.142 110.189 74.064 110.467 73.908C110.744 73.7433 110.913 73.5007 110.974 73.18H112.144C112.066 73.778 111.771 74.2547 111.26 74.61C110.757 74.9567 110.129 75.13 109.375 75.13ZM111.026 70.931V70.45C111.026 69.8867 110.883 69.4533 110.597 69.15C110.319 68.8467 109.912 68.695 109.375 68.695C108.846 68.695 108.439 68.8467 108.153 69.15C107.867 69.4533 107.724 69.8867 107.724 70.45V70.827H111.117L111.026 70.931ZM117.17 75.13C116.606 75.13 116.112 75.0173 115.688 74.792C115.272 74.5667 114.947 74.2503 114.713 73.843C114.487 73.427 114.375 72.946 114.375 72.4V70.45C114.375 69.8953 114.487 69.4143 114.713 69.007C114.947 68.5997 115.272 68.2833 115.688 68.058C116.112 67.8327 116.606 67.72 117.17 67.72C117.733 67.72 118.223 67.8327 118.639 68.058C119.063 68.2833 119.388 68.5997 119.614 69.007C119.848 69.4143 119.965 69.8953 119.965 70.45V71.711H115.519V72.4C115.519 72.9633 115.662 73.3967 115.948 73.7C116.234 73.9947 116.641 74.142 117.17 74.142C117.62 74.142 117.984 74.064 118.262 73.908C118.539 73.7433 118.708 73.5007 118.769 73.18H119.939C119.861 73.778 119.566 74.2547 119.055 74.61C118.552 74.9567 117.924 75.13 117.17 75.13ZM118.821 70.931V70.45C118.821 69.8867 118.678 69.4533 118.392 69.15C118.114 68.8467 117.707 68.695 117.17 68.695C116.641 68.695 116.234 68.8467 115.948 69.15C115.662 69.4533 115.519 69.8867 115.519 70.45V70.827H118.912L118.821 70.931ZM124.743 75.104C124.258 75.104 123.833 75.0303 123.469 74.883C123.114 74.727 122.828 74.5103 122.611 74.233C122.403 73.9557 122.278 73.6263 122.234 73.245H123.404C123.456 73.4963 123.595 73.6957 123.82 73.843C124.054 73.9903 124.362 74.064 124.743 74.064H125.289C125.749 74.064 126.091 73.973 126.316 73.791C126.542 73.6003 126.654 73.349 126.654 73.037C126.654 72.7337 126.55 72.4953 126.342 72.322C126.143 72.14 125.844 72.0187 125.445 71.958L124.483 71.802C123.781 71.6807 123.257 71.464 122.91 71.152C122.572 70.8313 122.403 70.3677 122.403 69.761C122.403 69.1197 122.607 68.6257 123.014 68.279C123.422 67.9237 124.033 67.746 124.847 67.746H125.341C126.026 67.746 126.576 67.9063 126.992 68.227C127.408 68.5477 127.66 68.981 127.746 69.527H126.576C126.524 69.3017 126.394 69.124 126.186 68.994C125.978 68.8553 125.697 68.786 125.341 68.786H124.847C124.405 68.786 124.08 68.8683 123.872 69.033C123.673 69.1977 123.573 69.4447 123.573 69.774C123.573 70.0687 123.66 70.2853 123.833 70.424C124.007 70.5627 124.28 70.6623 124.652 70.723L125.614 70.879C126.386 71.0003 126.945 71.2257 127.291 71.555C127.647 71.8843 127.824 72.361 127.824 72.985C127.824 73.6437 127.612 74.1637 127.187 74.545C126.771 74.9177 126.139 75.104 125.289 75.104H124.743Z" fill="#838383"/>
</svg>
